<svg xmlns="http://www.w3.org/2000/svg" xml:space="preserve" viewBox="0 0 760 348" width="760" height="348"><style>
.s{font-family:-apple-system,'SF Pro Text',Inter,Helvetica,Arial,sans-serif}
.m{font-family:'SF Mono',Menlo,Consolas,monospace;white-space:pre}
</style><defs>
<linearGradient id="bar" x1="0" y1="0" x2="0" y2="1"><stop offset="0" stop-color="#2a2a2c"/><stop offset="1" stop-color="#1c1c1e"/></linearGradient>
<radialGradient id="bleed" cx="0.5" cy="0" r="0.5"><stop offset="0" stop-color="#D97757" stop-opacity="0.35"/><stop offset="1" stop-color="#D97757" stop-opacity="0"/></radialGradient>
<radialGradient id="gbleed" cx="0.5" cy="0" r="0.5"><stop offset="0" stop-color="#30D158" stop-opacity="0.18"/><stop offset="1" stop-color="#30D158" stop-opacity="0"/></radialGradient>
</defs><rect width="760" height="348" fill="#0f0f10"/><rect x="0" y="0" width="760" height="38" fill="url(#bar)"/><path d="M20 0H740V316A18 18 0 0 1 722 334H38A18 18 0 0 1 20 316Z" fill="#000"/><text x="40" y="20" class="s" font-size="12.5" fill="#fff" font-weight="600">lumen · harbor</text><text x="40" y="36" class="s" font-size="10.5" fill="#6e6e73">feature/cart · opus · done</text><g stroke="#a1a1a6" stroke-width="1.5" fill="none" stroke-linecap="round" stroke-linejoin="round"><rect x="556" y="18" width="12" height="4" rx="1"/><rect x="556" y="23" width="12" height="4" rx="1"/><path d="M556 30H568"/></g><g stroke="#a1a1a6" stroke-width="1.5" fill="none" stroke-linecap="round" stroke-linejoin="round"><path d="M587 21H597M592 16V26M587 30H597"/></g><path stroke="#a1a1a6" stroke-width="1.5" fill="none" stroke-linecap="round" stroke-linejoin="round" d="M615 19H620L622 21H629V30H615Z"/><rect x="639" y="12" width="26" height="24" rx="7" fill="#3a3a3c"/><g stroke="#fff" stroke-width="1.5" fill="none" stroke-linecap="round" stroke-linejoin="round"><circle cx="648" cy="19" r="2"/><circle cx="648" cy="30" r="2"/><circle cx="657" cy="21" r="2"/><path d="M648 21V28M657 23C657 27 648 25 648 28"/></g><g stroke="#a1a1a6" stroke-width="1.5" fill="none" stroke-linecap="round" stroke-linejoin="round"><path d="M675 28A7 7 0 0 1 689 28"/><path d="M682 28L685.5 22.5"/></g><path d="M698 14V34" stroke="#3a3a3c"/><g fill="none" stroke="#a1a1a6"><circle cx="718" cy="24" r="6" stroke-width="3" stroke-dasharray="2.1 2.6"/><circle cx="718" cy="24" r="4.6" stroke-width="1.5"/><circle cx="718" cy="24" r="1.8" stroke-width="1.4"/></g><path d="M32 48H728" stroke="#2c2c2e"/><path d="M639 48.5H665" stroke="#8e8e93" stroke-width="2" stroke-linecap="round"/><rect x="32" y="56" width="696" height="240" rx="14" fill="#161618"/><rect x="44" y="66" width="136" height="24" rx="7" fill="#232326"/><text x="54" y="82" class="s" font-size="12" fill="#6e6e73">lumen</text><text x="90" y="82" class="s" font-size="12" fill="#6e6e73">›</text><text x="100" y="82" class="s" font-size="12" fill="#fff" font-weight="600">harbor</text><text x="144" y="82" class="s" font-size="9" fill="#a1a1a6">▾</text><rect x="156" y="69" width="18" height="18" rx="4" fill="#1c1c1e" stroke="#3a3a3c"/><text x="165" y="81.5" class="m" font-size="10" fill="#fff" text-anchor="middle">W</text><text x="192" y="82" class="m" font-size="11.5" fill="#fff">feature/cart</text><g><rect x="632" y="66" width="84" height="24" rx="12" fill="#fff"/><text x="646" y="82.5" class="s" font-size="12" fill="#000" font-weight="600">Push</text><text x="679" y="82.5" class="s" font-size="11" fill="#3a3a3c" font-weight="500">3</text><rect x="692" y="70" width="16" height="16" rx="4" fill="none" stroke="#8e8e93"/><text x="700" y="81.5" class="m" font-size="9.5" fill="#3a3a3c" text-anchor="middle">P</text></g><path d="M44 100H716" stroke="#232326"/><path d="M310 100V286" stroke="#2c2c2e"/><text x="48" y="122" class="s" font-size="11" fill="#a1a1a6" font-weight="600">Uncommitted</text><text x="124" y="122" class="s" font-size="11" fill="#6e6e73">2 files</text><rect x="40" y="130" width="262" height="24" rx="6" fill="#2a2a2d"/><text x="48" y="146" class="m" font-size="11" fill="#fff">src/checkout/Cart.tsx</text><rect x="208" y="139" width="6" height="6" rx="1" fill="#30D158"/><rect x="216" y="139" width="6" height="6" rx="1" fill="#30D158"/><rect x="224" y="139" width="6" height="6" rx="1" fill="#30D158"/><rect x="232" y="139" width="6" height="6" rx="1" fill="#FF453A"/><rect x="240" y="139" width="6" height="6" rx="1" fill="#FF453A"/><text x="294" y="146" class="m" font-size="10.5" fill="#a1a1a6" text-anchor="end">+24 −6</text><text x="48" y="172" class="m" font-size="11" fill="#a1a1a6">api/orders.ts</text><rect x="208" y="165" width="6" height="6" rx="1" fill="#30D158"/><rect x="216" y="165" width="6" height="6" rx="1" fill="#30D158"/><rect x="224" y="165" width="6" height="6" rx="1" fill="#30D158"/><rect x="232" y="165" width="6" height="6" rx="1" fill="#30D158"/><rect x="240" y="165" width="6" height="6" rx="1" fill="#FF453A"/><text x="294" y="172" class="m" font-size="10.5" fill="#a1a1a6" text-anchor="end">+3 −1</text><text x="48" y="208" class="s" font-size="11" fill="#a1a1a6" font-weight="600">Recent commits</text><text x="48" y="230" class="m" font-size="10.5" fill="#6e6e73">a41c9e2</text><text x="104" y="230" class="s" font-size="11" fill="#a1a1a6">Split cart total…</text><rect x="214" y="220" width="54" height="14" rx="4" fill="#2c2c2e"/><text x="241" y="230" class="s" font-size="9.5" fill="#a1a1a6" text-anchor="middle">unpushed</text><text x="294" y="230" class="s" font-size="10.5" fill="#6e6e73" text-anchor="end">2m</text><text x="48" y="252" class="m" font-size="10.5" fill="#6e6e73">7d03b5f</text><text x="104" y="252" class="s" font-size="11" fill="#a1a1a6">Add discount cod…</text><rect x="214" y="242" width="54" height="14" rx="4" fill="#2c2c2e"/><text x="241" y="252" class="s" font-size="9.5" fill="#a1a1a6" text-anchor="middle">unpushed</text><text x="294" y="252" class="s" font-size="10.5" fill="#6e6e73" text-anchor="end">9m</text><text x="48" y="274" class="m" font-size="10.5" fill="#6e6e73">e29f1a0</text><text x="104" y="274" class="s" font-size="11" fill="#a1a1a6">Retry failed order requests</text><text x="294" y="274" class="s" font-size="10.5" fill="#6e6e73" text-anchor="end">1h</text><text x="326" y="122" class="m" font-size="11.5" fill="#fff">src/checkout/Cart.tsx</text><rect x="478.9" y="111" width="16" height="15" rx="3.5" fill="#FF9F0A" fill-opacity="0.18"/><text x="486.9" y="122" class="m" font-size="10" fill="#FF9F0A" text-anchor="middle">M</text><text x="504.9" y="122" class="m" font-size="10.5" fill="#a1a1a6">+24 −6</text><text x="698" y="122" class="s" font-size="10.5" fill="#6e6e73" text-anchor="end">hunk 1 of 3</text><clipPath id="dc"><rect x="322" y="134" width="382" height="144"/></clipPath><g clip-path="url(#dc)"><text x="330" y="147.5" class="m" font-size="10.5" fill="#64D2FF" fill-opacity="0.75">@@ -12,7 +12,8 @@ export function Cart()</text><text x="344" y="165.5" class="m" font-size="10" fill="#6e6e73" text-anchor="end">12</text><text x="370" y="165.5" class="m" font-size="10" fill="#6e6e73" text-anchor="end">12</text><text x="384" y="165.5" class="m" font-size="10.5" fill="#30D158"></text><text x="396" y="165.5" class="m" font-size="10.5" fill="#a1a1a6">  const items = useCart();</text><rect x="322" y="170" width="382" height="18" fill="#FF453A" fill-opacity="0.10"/><rect x="446.4" y="172" width="31.5" height="14" rx="2" fill="#FF453A" fill-opacity="0.34"/><text x="344" y="183.5" class="m" font-size="10" fill="#6e6e73" text-anchor="end">13</text><text x="370" y="183.5" class="m" font-size="10" fill="#6e6e73" text-anchor="end"></text><text x="384" y="183.5" class="m" font-size="10.5" fill="#FF453A">−</text><text x="396" y="183.5" class="m" font-size="10.5" fill="#fff">  const total = items.reduce((s, i) =&gt; s + i.price, 0);</text><rect x="322" y="188" width="382" height="18" fill="#FF453A" fill-opacity="0.10"/><rect x="534.6" y="190" width="44.1" height="14" rx="2" fill="#FF453A" fill-opacity="0.34"/><text x="344" y="201.5" class="m" font-size="10" fill="#6e6e73" text-anchor="end">14</text><text x="370" y="201.5" class="m" font-size="10" fill="#6e6e73" text-anchor="end"></text><text x="384" y="201.5" class="m" font-size="10.5" fill="#FF453A">−</text><text x="396" y="201.5" class="m" font-size="10.5" fill="#fff">  return &lt;Total value={total} /&gt;;</text><rect x="322" y="206" width="382" height="18" fill="#30D158" fill-opacity="0.10"/><rect x="446.4" y="208" width="50.4" height="14" rx="2" fill="#30D158" fill-opacity="0.34"/><rect x="736.2" y="208" width="44.1" height="14" rx="2" fill="#30D158" fill-opacity="0.34"/><text x="344" y="219.5" class="m" font-size="10" fill="#6e6e73" text-anchor="end"></text><text x="370" y="219.5" class="m" font-size="10" fill="#6e6e73" text-anchor="end">13</text><text x="384" y="219.5" class="m" font-size="10.5" fill="#30D158">+</text><text x="396" y="219.5" class="m" font-size="10.5" fill="#fff">  const subtotal = items.reduce((s, i) =&gt; s + i.price * i.qty, 0);</text><rect x="322" y="224" width="382" height="18" fill="#30D158" fill-opacity="0.10"/><rect x="496.8" y="226" width="189" height="14" rx="2" fill="#30D158" fill-opacity="0.34"/><text x="344" y="237.5" class="m" font-size="10" fill="#6e6e73" text-anchor="end"></text><text x="370" y="237.5" class="m" font-size="10" fill="#6e6e73" text-anchor="end">14</text><text x="384" y="237.5" class="m" font-size="10.5" fill="#30D158">+</text><text x="396" y="237.5" class="m" font-size="10.5" fill="#fff">  const total = applyDiscount(subtotal, code);</text><rect x="322" y="242" width="382" height="18" fill="#30D158" fill-opacity="0.10"/><rect x="585" y="244" width="119.7" height="14" rx="2" fill="#30D158" fill-opacity="0.34"/><text x="344" y="255.5" class="m" font-size="10" fill="#6e6e73" text-anchor="end"></text><text x="370" y="255.5" class="m" font-size="10" fill="#6e6e73" text-anchor="end">15</text><text x="384" y="255.5" class="m" font-size="10.5" fill="#30D158">+</text><text x="396" y="255.5" class="m" font-size="10.5" fill="#fff">  return &lt;Total value={total} currency={currency} /&gt;;</text><text x="344" y="273.5" class="m" font-size="10" fill="#6e6e73" text-anchor="end">15</text><text x="370" y="273.5" class="m" font-size="10" fill="#6e6e73" text-anchor="end">16</text><text x="384" y="273.5" class="m" font-size="10.5" fill="#30D158"></text><text x="396" y="273.5" class="m" font-size="10.5" fill="#a1a1a6">}</text></g><rect x="714" y="108" width="6" height="178" rx="2" fill="#1f1f22"/><rect x="714" y="129.4" width="6" height="2" fill="#FF453A"/><rect x="714" y="134.7" width="6" height="4" fill="#30D158"/><rect x="714" y="175.6" width="6" height="3" fill="#30D158"/><rect x="714" y="205.9" width="6" height="2" fill="#FF453A"/><rect x="714" y="209.5" width="6" height="5" fill="#30D158"/><rect x="714" y="254.0" width="6" height="2" fill="#30D158"/><rect x="713" y="122.24" width="8" height="53.4" rx="2" fill="none" stroke="#8e8e93" stroke-opacity="0.7"/><rect x="40" y="305" width="22" height="18" rx="4" fill="#1c1c1e" stroke="#3a3a3c"/><text x="51" y="317.5" class="m" font-size="10" fill="#fff" text-anchor="middle">↑↓</text><text x="68" y="318" class="s" font-size="11" fill="#a1a1a6">File</text><rect x="110.2" y="305" width="28" height="18" rx="4" fill="#1c1c1e" stroke="#3a3a3c"/><text x="124.2" y="317.5" class="m" font-size="10" fill="#fff" text-anchor="middle">⌥↑↓</text><text x="144.2" y="318" class="s" font-size="11" fill="#a1a1a6">Hunk</text><rect x="186.4" y="305" width="18" height="18" rx="4" fill="#1c1c1e" stroke="#3a3a3c"/><text x="195.4" y="317.5" class="m" font-size="10" fill="#fff" text-anchor="middle">P</text><text x="210.4" y="318" class="s" font-size="11" fill="#a1a1a6">Push</text><rect x="252.60000000000002" y="305" width="18" height="18" rx="4" fill="#1c1c1e" stroke="#3a3a3c"/><text x="261.6" y="317.5" class="m" font-size="10" fill="#fff" text-anchor="middle">W</text><text x="276.6" y="318" class="s" font-size="11" fill="#a1a1a6">Branches</text><rect x="343" y="305" width="28" height="18" rx="4" fill="#1c1c1e" stroke="#3a3a3c"/><text x="357" y="317.5" class="m" font-size="10" fill="#fff" text-anchor="middle">esc</text><text x="622" y="318" class="s" font-size="10.5" fill="#6e6e73">5h</text><rect x="640" y="312" width="80" height="4" rx="2" fill="#2c2c2e"/><rect x="640" y="312" width="34" height="4" rx="2" fill="#a1a1a6"/></svg>
