<svg xmlns="http://www.w3.org/2000/svg" xml:space="preserve" viewBox="0 0 760 300" width="760" height="300"><style>
.s{font-family:-apple-system,'SF Pro Text',Inter,Helvetica,Arial,sans-serif}
.m{font-family:'SF Mono',Menlo,Consolas,monospace;white-space:pre}
</style><defs>
<linearGradient id="bar" x1="0" y1="0" x2="0" y2="1"><stop offset="0" stop-color="#2a2a2c"/><stop offset="1" stop-color="#1c1c1e"/></linearGradient>
<radialGradient id="bleed" cx="0.5" cy="0" r="0.5"><stop offset="0" stop-color="#D97757" stop-opacity="0.35"/><stop offset="1" stop-color="#D97757" stop-opacity="0"/></radialGradient>
<radialGradient id="gbleed" cx="0.5" cy="0" r="0.5"><stop offset="0" stop-color="#30D158" stop-opacity="0.18"/><stop offset="1" stop-color="#30D158" stop-opacity="0"/></radialGradient>
</defs><rect width="760" height="300" fill="#0f0f10"/><rect x="0" y="0" width="760" height="38" fill="url(#bar)"/><text x="16" y="23" class="s" font-size="12" fill="#a1a1a6">Finder</text><text x="744" y="23" class="s" font-size="12" fill="#8e8e93" text-anchor="end">9:41</text><ellipse cx="380" cy="246" rx="340" ry="30" fill="url(#bleed)"/><path d="M80 0H680V228A18 18 0 0 1 662 246H98A18 18 0 0 1 80 228Z" fill="#000"/><path d="M102 14L107.8 24H96.2Z" fill="#D97757"/><text x="114" y="23.5" class="s" font-size="13" fill="#fff" font-weight="600">Needs you</text><text x="196.35000000000002" y="23.5" class="s" font-size="12" fill="#6e6e73">lumen · quartz</text><text x="660" y="23.5" class="s" font-size="12" fill="#a1a1a6" text-anchor="end" font-variant-numeric="tabular-nums">0:53</text><circle cx="620" cy="19" r="7" fill="none" stroke="#3a3a3c" stroke-width="2"/><circle cx="620" cy="19" r="7" fill="none" stroke="#D97757" stroke-width="2" stroke-linecap="round" stroke-dasharray="32.99 43.98" transform="rotate(-90 620 19)"/><text x="102" y="58" class="s" font-size="13" fill="#fff" font-weight="600">Edit Cart.tsx?</text><text x="210.10000000000002" y="58" class="m" font-size="12" fill="#a1a1a6">src/checkout/Cart.tsx</text><rect x="92" y="76" width="576" height="158" rx="12" fill="#161618"/><text x="106" y="98" class="m" font-size="11" fill="#fff">src/checkout/Cart.tsx</text><text x="254.6" y="98" class="m" font-size="10.5" fill="#a1a1a6">+2 −1</text><text x="654" y="98" class="s" font-size="10.5" fill="#6e6e73" text-anchor="end">the exact text Claude will write</text><text x="122" y="123.5" class="m" font-size="10" fill="#6e6e73" text-anchor="end">41</text><text x="134" y="123.5" class="m" font-size="10.5" fill="#30D158"></text><text x="148" y="123.5" class="m" font-size="10.5" fill="#a1a1a6">  const items = useCart();</text><rect x="92" y="129" width="576" height="19" fill="#FF453A" fill-opacity="0.10"/><text x="122" y="142.5" class="m" font-size="10" fill="#6e6e73" text-anchor="end">42</text><text x="134" y="142.5" class="m" font-size="10.5" fill="#FF453A">−</text><text x="148" y="142.5" class="m" font-size="10.5" fill="#fff">  const total = sum(items);</text><rect x="92" y="148" width="576" height="19" fill="#30D158" fill-opacity="0.10"/><text x="122" y="161.5" class="m" font-size="10" fill="#6e6e73" text-anchor="end">42</text><text x="134" y="161.5" class="m" font-size="10.5" fill="#30D158">+</text><text x="148" y="161.5" class="m" font-size="10.5" fill="#fff">  const subtotal = sum(items);</text><rect x="92" y="167" width="576" height="19" fill="#30D158" fill-opacity="0.10"/><text x="122" y="180.5" class="m" font-size="10" fill="#6e6e73" text-anchor="end">43</text><text x="134" y="180.5" class="m" font-size="10.5" fill="#30D158">+</text><text x="148" y="180.5" class="m" font-size="10.5" fill="#fff">  const total = applyDiscount(subtotal, code);</text><text x="122" y="199.5" class="m" font-size="10" fill="#6e6e73" text-anchor="end">44</text><text x="134" y="199.5" class="m" font-size="10.5" fill="#30D158"></text><text x="148" y="199.5" class="m" font-size="10.5" fill="#a1a1a6">  return &lt;Total value={total} /&gt;;</text><text x="122" y="218.5" class="m" font-size="10" fill="#6e6e73" text-anchor="end">45</text><text x="134" y="218.5" class="m" font-size="10.5" fill="#30D158"></text><text x="148" y="218.5" class="m" font-size="10.5" fill="#a1a1a6">}</text><rect x="241.525" y="267" width="18" height="18" rx="4" fill="#1c1c1e" stroke="#3a3a3c"/><text x="250.525" y="279.5" class="m" font-size="10" fill="#fff" text-anchor="middle">⏎</text><text x="265.525" y="280" class="s" font-size="11" fill="#a1a1a6">Allow</text><rect x="317.775" y="267" width="18" height="18" rx="4" fill="#1c1c1e" stroke="#3a3a3c"/><text x="326.775" y="279.5" class="m" font-size="10" fill="#fff" text-anchor="middle">⌫</text><text x="341.775" y="280" class="s" font-size="11" fill="#a1a1a6">Deny</text><rect x="387.97499999999997" y="267" width="18" height="18" rx="4" fill="#1c1c1e" stroke="#3a3a3c"/><text x="396.97499999999997" y="279.5" class="m" font-size="10" fill="#fff" text-anchor="middle">A</text><text x="411.97499999999997" y="280" class="s" font-size="11" fill="#a1a1a6">Always</text><rect x="470.275" y="267" width="18" height="18" rx="4" fill="#1c1c1e" stroke="#3a3a3c"/><text x="479.275" y="279.5" class="m" font-size="10" fill="#fff" text-anchor="middle">D</text><text x="494.275" y="280" class="s" font-size="11" fill="#a1a1a6">Diff</text></svg>
