<svg xmlns="http://www.w3.org/2000/svg" xml:space="preserve" viewBox="0 0 760 216" width="760" height="216"><style>
.s{font-family:-apple-system,'SF Pro Text',Inter,Helvetica,Arial,sans-serif}
.m{font-family:'SF Mono',Menlo,Consolas,monospace;white-space:pre}
</style><defs>
<linearGradient id="bar" x1="0" y1="0" x2="0" y2="1"><stop offset="0" stop-color="#2a2a2c"/><stop offset="1" stop-color="#1c1c1e"/></linearGradient>
<radialGradient id="bleed" cx="0.5" cy="0" r="0.5"><stop offset="0" stop-color="#D97757" stop-opacity="0.35"/><stop offset="1" stop-color="#D97757" stop-opacity="0"/></radialGradient>
<radialGradient id="gbleed" cx="0.5" cy="0" r="0.5"><stop offset="0" stop-color="#30D158" stop-opacity="0.18"/><stop offset="1" stop-color="#30D158" stop-opacity="0"/></radialGradient>
</defs><rect width="760" height="216" fill="#0f0f10"/><rect x="0" y="8" width="640" height="38" fill="url(#bar)"/><text x="14" y="31" class="s" font-size="12" fill="#a1a1a6">Finder</text><text x="626" y="31" class="s" font-size="12" fill="#8e8e93" text-anchor="end">9:41</text><path d="M230 8H410V36A10 10 0 0 1 400 46H240A10 10 0 0 1 230 36Z" fill="#000"/><text x="660" y="31.5" class="s" font-size="12" fill="#6e6e73">closed</text><rect x="0" y="62" width="640" height="38" fill="url(#bar)"/><text x="14" y="85" class="s" font-size="12" fill="#a1a1a6">Finder</text><text x="626" y="85" class="s" font-size="12" fill="#8e8e93" text-anchor="end">9:41</text><path d="M85 62H555V90A10 10 0 0 1 545 100H95A10 10 0 0 1 85 90Z" fill="#000"/><text x="101" y="86" class="s" font-size="15" fill="#D97757">✻</text><text x="119" y="85.5" class="s" font-size="12" fill="#fff">lumen · harbor</text><rect x="422" y="77" width="6" height="6" rx="1.5" fill="#D97757"/><rect x="432" y="77" width="6" height="6" rx="1.5" fill="#D97757" fill-opacity="0.55"/><text x="539" y="85.5" class="s" font-size="12" fill="#a1a1a6" text-anchor="end">2 agents</text><text x="660" y="85.5" class="s" font-size="12" fill="#6e6e73">working</text><rect x="0" y="116" width="640" height="38" fill="url(#bar)"/><text x="14" y="139" class="s" font-size="12" fill="#a1a1a6">Finder</text><text x="626" y="139" class="s" font-size="12" fill="#8e8e93" text-anchor="end">9:41</text><ellipse cx="320" cy="154" rx="280" ry="14" fill="url(#gbleed)"/><path d="M70 116H570V144A10 10 0 0 1 560 154H80A10 10 0 0 1 70 144Z" fill="#000"/><circle cx="92" cy="135" r="7" fill="#30D158"/><path d="M88.85 135L91.3 137.45L95.15 132.55" fill="none" stroke="#000" stroke-width="1.6" stroke-linecap="round" stroke-linejoin="round"/><text x="106" y="139.5" class="s" font-size="12" fill="#fff">Done · lumen · harbor</text><text x="554" y="139.5" class="m" font-size="11" fill="#a1a1a6" text-anchor="end">3 files  +87 −12</text><text x="660" y="139.5" class="s" font-size="12" fill="#6e6e73">done</text><rect x="0" y="170" width="640" height="38" fill="url(#bar)"/><text x="14" y="193" class="s" font-size="12" fill="#a1a1a6">Finder</text><text x="626" y="193" class="s" font-size="12" fill="#8e8e93" text-anchor="end">9:41</text><path d="M110 170H530V198A10 10 0 0 1 520 208H120A10 10 0 0 1 110 198Z" fill="#000"/><circle cx="130" cy="189" r="3.5" fill="#30D158" fill-opacity="0.8"/><text x="142" y="193.5" class="s" font-size="12" fill="#a1a1a6">lumen · harbor</text><text x="516" y="193.5" class="s" font-size="12" fill="#6e6e73" text-anchor="end">+1 session</text><text x="660" y="193.5" class="s" font-size="12" fill="#6e6e73">resting</text></svg>
